<?xml version="1.0" encoding="utf-8"?>

<!DOCTYPE svg PUBLIC "-//W3C//DTD SVG 1.1//EN" "http://www.w3.org/Graphics/SVG/1.1/DTD/svg11.dtd">
<!-- Uploaded to: SVG Repo, www.svgrepo.com, Generator: SVG Repo Mixer Tools -->
<svg height="800px" width="800px" version="1.1" id="_x32_" xmlns="http://www.w3.org/2000/svg" xmlns:xlink="http://www.w3.org/1999/xlink" 
	 viewBox="0 0 512 512"  xml:space="preserve">
<style type="text/css">
	.st0{fill:#000000;}
</style>
<g>
	<path class="st0" d="M401.582,458.978c-12.718-116.882-63.517-218.609-86.652-342.486h4.767c7.944,0,14.866-5.42,16.764-13.136
		l20.26-81.932c1.273-5.158,0.101-10.617-3.171-14.799C350.277,2.444,345.262,0,339.949,0H172.052
		c-5.319,0-10.329,2.444-13.608,6.625c-3.279,4.182-4.444,9.641-3.171,14.799l20.252,81.932c1.912,7.716,8.833,13.136,16.778,13.136
		h4.767c-23.134,123.877-73.94,225.604-86.659,342.486c-1.878,17.304-1.582,28.716-1.582,28.716
		c-0.356,6.315,1.912,12.509,6.262,17.101c4.35,4.606,10.409,7.205,16.738,7.205h248.342c6.328,0,12.375-2.599,16.73-7.205
		c4.35-4.592,6.619-10.786,6.269-17.101C403.171,487.694,403.467,476.282,401.582,458.978z M255.997,50.112
		c7.858,0,14.22,6.37,14.22,14.22c0,7.858-6.362,14.227-14.22,14.227c-7.85,0-14.22-6.369-14.22-14.227
		C241.777,56.482,248.147,50.112,255.997,50.112z M382.144,490.832c-0.512,0.545-1.232,0.855-1.972,0.855H131.83
		c-0.74,0-1.468-0.31-1.979-0.855c-0.512-0.539-0.781-1.273-0.741-2.02l0.048-0.822l-0.021-0.821c0-0.074-0.215-10.476,1.475-25.988
		c6.821-62.704,24.952-120.908,44.147-182.528c15.337-49.264,31.16-100.051,41.717-155.395h79.044
		c10.564,55.344,26.379,106.13,41.723,155.395c19.189,61.619,37.32,119.824,44.141,182.528c1.69,15.512,1.481,25.915,1.481,26.016
		l-0.027,0.794l0.047,0.822C382.925,489.559,382.656,490.293,382.144,490.832z"/>
	<path class="st0" d="M327.494,302.049H184.508c-16.725,54.072-31.766,106.009-37.731,160.888c-0.525,4.76-0.848,8.975-1.057,12.49
		h220.556c-0.202-3.528-0.532-7.756-1.051-12.496C359.259,408.058,344.218,356.121,327.494,302.049z"/>
</g>
</svg>